<svg width="734" height="644" viewBox="0 0 734 644" fill="none" xmlns="http://www.w3.org/2000/svg">
<path d="M556.921 527C557.018 526.891 556.283 526.799 554.921 526.72V481H488.921V484.68H459.211C455.728 484.684 452.388 486.07 449.925 488.533C447.461 490.996 446.076 494.336 446.071 497.82V516.73C446.074 520.214 447.459 523.555 449.923 526.019C452.386 528.482 455.727 529.868 459.211 529.87L489.661 529.91L503.031 529.93H503.951L517.331 529.95L554.701 530H557.921C558.391 529.47 556.471 527.53 556.921 527Z" fill="#494B49"/>
<path d="M557.631 527.849C555.449 531.032 553.68 530.915 552.133 528.855C551.318 527.671 550.663 526.386 550.182 525.032C545.479 512.972 542.402 485.305 533.533 494.979C531.782 496.89 530.003 498.785 528.218 500.659C524.9 504.149 521.435 507.936 518.001 511.282C518 511.292 518.079 510.92 518.068 510.928C516.374 512.585 517.65 498.255 516.98 494.223C516.837 493.352 516.605 492.963 516.235 493.311C516.206 492.919 516.188 492.529 516.191 492.133C516.187 491.51 516.218 490.888 516.285 490.268C516.34 489.699 516.418 489.123 516.526 488.543L545.524 333.481C546.288 329.42 548.327 325.707 551.345 322.883C554.363 320.06 558.202 318.271 562.306 317.779C564.249 317.563 566.214 317.632 568.138 317.984L573.416 318.971C575.5 319.361 577.505 320.093 579.349 321.139L579.359 321.141C582.884 323.129 585.7 326.17 587.412 329.837C589.125 333.505 589.649 337.615 588.911 341.595L557.631 527.849Z" fill="#494B49"/>
<path d="M310.008 616.176L296.394 609.665L315.095 552.76L335.188 562.37L310.008 616.176Z" fill="#F7E7CE"/>
<path d="M401.279 607.002C400.289 607.622 399.299 608.232 398.299 608.842C396.309 610.062 394.299 611.262 392.289 612.442C391.279 613.032 390.259 613.622 389.249 614.202V614.232L389.189 614.242L389.169 614.252L387.629 614.632L385.419 608.792L384.399 606.102L382.959 602.292L380.319 595.322L366.419 558.622L388.029 553.292L388.839 556.602H388.849L389.249 558.242L396.799 588.862L398.339 595.122L398.389 595.312L399.319 599.052L400.119 602.292L401.009 605.912L401.279 607.002Z" fill="#F7E7CE"/>
<path d="M530.191 478.12C528.821 480.32 527.421 482.51 526.011 484.68C523.391 488.72 520.701 492.7 517.941 496.62C517.941 496.63 517.931 496.63 517.921 496.64C516.311 498.132 514.532 499.43 512.621 500.51C512.541 500.57 512.451 500.61 512.371 500.66C510.964 501.438 509.466 502.039 507.911 502.45C507.351 502.59 506.781 502.73 506.221 502.87C504.201 503.35 502.201 503.76 500.211 504.12C496.671 504.75 493.171 505.2 489.691 505.48C489.411 505.51 489.131 505.53 488.851 505.55C474.541 506.6 460.611 504.91 446.071 502.14C438.891 500.78 431.561 499.15 423.971 497.46C421.491 496.9 419.001 496.35 416.481 495.8C416.291 495.76 416.091 495.71 415.891 495.67C412.291 494.88 408.631 494.1 404.881 493.33C400.161 492.36 395.291 491.42 390.231 490.53L390.591 497.66C390.891 503.145 392.031 508.551 393.971 513.69C396.131 520.01 397.841 525.01 394.231 535.42L392.491 540.46C393.393 542.963 393.703 545.64 393.396 548.283C393.089 550.925 392.173 553.461 390.721 555.69L390.371 556.22L404.881 592.93L405.821 595.31H398.391L389.251 595.32H373.761L351.411 550.48L350.341 548.34V548.23L352.651 462.06C352.681 461.3 352.741 460.53 352.841 459.77C353.249 456.315 354.34 452.976 356.052 449.947C357.764 446.918 360.062 444.261 362.811 442.13C365.446 440.071 368.465 438.556 371.69 437.673C374.916 436.791 378.285 436.559 381.601 436.99L389.251 437.98L404.881 440L415.891 441.43L416.111 441.46L448.581 445.66L450.911 436.16L451.341 436L465.011 430.99L512.291 413.66L512.411 413.62L515.521 412.48L515.891 413.08C516.001 413.26 516.111 413.44 516.211 413.62C519.285 419.131 521.788 424.941 523.681 430.96C526.865 440.793 529.486 450.799 531.531 460.93C531.621 461.37 531.701 461.77 531.771 462.13L531.801 462.24C531.831 462.41 531.851 462.52 531.861 462.55C532.951 467.09 532.191 472.63 530.191 478.12Z" fill="#7EC8E3"/>
<path d="M532.187 446.364C532.037 445.724 531.847 445.074 531.647 444.444C530.059 439.672 528.21 434.992 526.107 430.424C523.747 425.224 520.917 419.654 517.547 413.624C515.917 410.704 514.164 407.667 512.287 404.514C511.347 402.934 510.37 401.324 509.357 399.684C509.317 399.608 509.274 399.535 509.227 399.464L508.937 398.984L462.157 405.244L444.737 407.574L443.697 416.254L443.447 418.404C443.437 418.404 443.437 418.404 443.447 418.414L442.747 424.274V424.284L441.817 432.024L441.737 432.014L415.887 428.664L389.247 425.214L374.937 423.364C371.621 422.932 368.251 423.164 365.026 424.046C361.8 424.928 358.782 426.444 356.147 428.504C353.398 430.635 351.1 433.293 349.388 436.321C347.677 439.35 346.585 442.689 346.177 446.144C346.087 446.844 346.027 447.564 345.997 448.274L332.497 480.264C324.419 499.396 319.274 519.637 317.237 540.304L307.337 571.954L308.747 572.084L329.727 574.034L335.267 574.554L347.467 556.744C348.857 554.714 350.177 552.624 351.407 550.484C353.432 546.989 355.232 543.368 356.797 539.644L383.187 476.844C385.227 477.194 387.247 477.527 389.247 477.844C398.497 479.344 407.377 480.567 415.887 481.514C443.557 484.604 467.517 484.844 488.847 482.224C494.837 481.494 500.627 480.534 506.217 479.344C508.267 478.914 510.29 478.45 512.287 477.954C512.757 477.844 513.217 477.734 513.677 477.614C517.81 476.548 521.609 474.463 524.728 471.549C527.846 468.635 530.184 464.985 531.527 460.934C533.13 456.239 533.359 451.184 532.187 446.364Z" fill="#7EC8E3"/>
<path d="M314.357 606.884L299.627 599.824L297.317 598.714L293.627 607.774L267.867 613.444C266.593 613.723 265.442 614.402 264.582 615.382C263.722 616.362 263.198 617.592 263.086 618.891C262.974 620.19 263.281 621.491 263.961 622.603C264.641 623.716 265.66 624.581 266.867 625.074L292.037 635.344L300.027 628.154L298.067 637.804L307.547 641.674L317.937 608.604L314.357 606.884Z" fill="#2F2E41"/>
<path d="M404.881 592.93L405.821 595.31H404.881V592.93Z" fill="#2F2E41"/>
<path d="M228.881 419.86C228.881 414.5 227.081 410.15 224.871 410.14H58.3814C56.1614 410.15 54.3714 414.5 54.3614 419.86V640.503C54.3615 641.001 54.1763 641.48 53.842 641.849C53.5076 642.218 53.048 642.448 52.5527 642.497C50.9356 642.652 49.3185 642.796 47.7014 642.93C47.6614 642.93 47.6215 642.94 47.5815 642.94C46.7015 643.02 45.8214 643.08 44.9414 643.15H44.9314C44.4788 642.313 44.0313 641.469 43.5892 640.617C43.4396 640.33 43.3615 640.012 43.3615 639.688V407.25C43.3615 405.77 43.4215 404.28 43.5215 402.81C43.6642 400.791 43.9146 398.782 44.2715 396.79C45.9615 387.5 49.7814 381.21 54.1214 381.19H229.121C229.755 381.194 230.381 381.327 230.961 381.58C231.814 381.957 232.585 382.497 233.231 383.17C234.109 384.082 234.859 385.108 235.461 386.22C237.601 389.99 239.131 395.61 239.671 402.15C239.671 402.21 239.681 402.27 239.681 402.33C239.821 403.95 239.891 405.6 239.881 407.25L240.021 428.68L240.111 441.46L240.381 481.56L240.481 495.8L240.921 642C240.921 642.53 240.711 643.039 240.336 643.414C239.961 643.789 239.452 644 238.921 644H230.881C230.351 644 229.842 643.789 229.467 643.414C229.092 643.039 228.881 642.53 228.881 642L228.881 419.86Z" fill="#8D918D"/>
<path d="M110.203 321.74L98.622 372.695L91.222 380.801H85.883L107.887 288.155L108.975 303.894V303.905L110.203 321.74Z" fill="#5F635F"/>
<path d="M165.937 373.814L97.997 373.384L91.967 373.344L87.667 373.314L82.657 373.284H82.617C81.8903 373.285 81.1934 373.573 80.677 374.084L72.217 382.544C72.0297 382.728 71.8772 382.945 71.767 383.184C71.7142 383.251 71.6705 383.325 71.637 383.404C71.4539 383.829 71.3782 384.293 71.4167 384.755C71.4551 385.216 71.6065 385.661 71.8574 386.05C72.1083 386.44 72.4512 386.761 72.8557 386.987C73.2602 387.212 73.7139 387.335 74.177 387.344H162.187C162.715 387.342 163.232 387.191 163.678 386.908C164.124 386.624 164.481 386.221 164.707 385.744L165.397 384.244L166.817 381.194L168.427 377.754C168.599 377.388 168.688 376.988 168.687 376.584C168.683 375.854 168.393 375.155 167.878 374.636C167.364 374.118 166.667 373.823 165.937 373.814Z" fill="#5F635F"/>
<path opacity="0.17" d="M165.397 384.241L164.702 385.747C164.476 386.223 164.12 386.625 163.676 386.908C163.231 387.191 162.716 387.342 162.189 387.345H74.1754C73.7126 387.337 73.2589 387.214 72.8545 386.989C72.4501 386.764 72.1074 386.442 71.8567 386.053C71.606 385.664 71.455 385.219 71.4171 384.758C71.3792 384.296 71.4554 383.833 71.6392 383.408C71.6703 383.328 71.7133 383.254 71.7667 383.188L165.397 384.241Z" fill="black"/>
<path opacity="0.17" d="M108.975 303.894V303.905L90.133 380.801H85.883L107.887 288.155L108.975 303.894Z" fill="#D3D5D3"/>
<path d="M132.097 317.984L105.427 115.074C105.329 114.313 104.934 113.623 104.327 113.154L85.967 90.1738L84.317 88.9038C83.7057 88.4411 82.9374 88.2364 82.177 88.3338L79.417 88.7038C78.6558 88.8019 77.9648 89.1984 77.496 89.806C77.0271 90.4137 76.8189 91.1826 76.917 91.9438L104.557 302.184V302.194L106.247 315.054L108.257 330.324V330.344L111.377 354.104C111.427 354.511 111.564 354.902 111.78 355.251C111.996 355.6 112.285 355.898 112.627 356.124C112.963 356.355 113.345 356.513 113.747 356.585C114.148 356.657 114.561 356.643 114.957 356.544L116.707 356.104C117.377 355.931 117.965 355.527 118.367 354.964L119.147 353.854L119.507 353.334L131.587 320.034C132.011 319.44 132.193 318.707 132.097 317.984Z" fill="#5F635F"/>
<path opacity="0.17" d="M85.9626 90.1747L119.51 353.338L119.146 353.853L118.368 354.96C117.967 355.525 117.379 355.929 116.708 356.101L114.955 356.542C114.559 356.64 114.146 356.653 113.743 356.581C113.341 356.509 112.959 356.353 112.621 356.123C112.283 355.893 111.998 355.594 111.783 355.246C111.569 354.898 111.43 354.509 111.376 354.104L76.9213 91.947C76.8215 91.1857 77.0281 90.416 77.4956 89.807C77.9631 89.198 78.6533 88.7995 79.4145 88.6992L82.1816 88.3355C82.557 88.2848 82.9388 88.3093 83.3047 88.4076C83.6705 88.5059 84.0132 88.6761 84.3126 88.9082L85.9626 90.1747Z" fill="#D3D5D3"/>
<path d="M86.951 97.701L104.754 123.112L125.914 284.113L114.442 306.872L86.951 97.701Z" fill="#0EA5E9"/>
<path d="M469.559 642.325L457.35 642.554L491.284 524.675L503.493 528.446L469.559 642.325Z" fill="#494B49"/>
<path d="M549.631 642.55L537.431 642.32L503.951 529.93L503.491 528.45L511.321 526.03C512.871 526.06 514.481 526.08 516.141 526.1L517.331 529.95L549.631 642.55Z" fill="#494B49"/>
<path d="M399.751 595.819L384.317 601.166L381.895 602.003L385.647 611.037L371.332 633.191C370.624 634.286 370.284 635.578 370.362 636.88C370.44 638.182 370.933 639.424 371.768 640.426C372.602 641.428 373.736 642.136 375.002 642.448C376.268 642.76 377.601 642.658 378.805 642.159L403.916 631.746L404.535 621.015L409.932 629.252L419.391 625.331L403.505 594.522L399.751 595.819Z" fill="#2F2E41"/>
<path d="M306.073 264.946C306.805 266.372 307.84 267.62 309.107 268.602C310.373 269.584 311.839 270.277 313.402 270.631C314.965 270.985 316.587 270.993 318.153 270.653C319.719 270.312 321.191 269.633 322.466 268.662L354.921 290.207L354.983 269.964L324.154 252.608C322.381 250.574 319.923 249.261 317.247 248.918C314.571 248.575 311.862 249.225 309.633 250.746C307.404 252.267 305.811 254.552 305.155 257.17C304.499 259.787 304.825 262.554 306.073 264.946Z" fill="#F7E7CE"/>
<path d="M330.319 274.303L345.462 257.076L407.118 293.678L488.849 286.194C492.889 285.824 496.961 286.348 500.776 287.729C504.59 289.109 508.054 291.313 510.921 294.183C513.789 297.053 515.989 300.519 517.366 304.335C518.743 308.151 519.263 312.223 518.889 316.263C518.206 323.558 514.657 330.285 509.02 334.967C503.383 339.648 496.119 341.903 488.822 341.235L396.773 332.715L330.319 274.303Z" fill="#E6E6E6"/>
<path d="M520.016 274.568L519.875 274.39L481.244 270.578L455.144 316.554C432.708 343.983 449.012 362.899 449.987 365.711L442.2 401.619L443.945 413.636L444.817 417.206L533.713 463.656L515.442 402.787L533.282 347.278C537.237 335.004 538.096 321.943 535.782 309.257C533.467 296.571 528.051 284.654 520.016 274.568Z" fill="#E6E6E6"/>
<path d="M562.341 234.11C562.361 234.6 562.371 235.09 562.371 235.57C562.363 240.866 561.101 246.085 558.69 250.801C556.278 255.516 552.785 259.594 548.496 262.701C544.207 265.808 539.243 267.857 534.011 268.678C528.779 269.5 523.427 269.072 518.391 267.43L512.221 265.42C512.171 265.4 512.111 265.39 512.061 265.37L501.891 262.05C501.858 261.62 501.865 261.188 501.911 260.76C486.741 254.28 507.711 232.99 512.921 217C513.731 214.51 485.881 216.37 487.201 214.24C486.911 214.09 486.621 213.94 486.351 213.79C491.056 206.366 498.01 200.64 506.2 197.448C514.389 194.257 523.384 193.767 531.871 196.05C532.091 196.1 532.321 196.17 532.541 196.23C552.301 196.72 562.681 210.49 562.681 228.37C562.68 230.288 562.567 232.205 562.341 234.11Z" fill="#A47551"/>
<path d="M545.221 241.15C542.57 249.27 536.803 256.004 529.187 259.873C521.572 263.741 512.732 264.427 504.611 261.78C503.691 261.48 502.791 261.14 501.911 260.76C494.521 257.592 488.583 251.774 485.265 244.45C481.947 237.125 481.489 228.825 483.981 221.18C484.772 218.746 485.853 216.416 487.201 214.24C491.342 207.535 497.796 202.581 505.343 200.315C512.89 198.05 521.006 198.629 528.154 201.945C535.303 205.26 540.988 211.081 544.133 218.306C547.278 225.531 547.665 233.659 545.221 241.15Z" fill="#F7E7CE"/>
<path d="M512.221 265.42C512.171 265.4 512.111 265.39 512.061 265.37L501.891 262.05C501.858 261.62 501.865 261.188 501.911 260.76C502.214 257.412 504.564 253.905 507.719 250.119C509.751 247.698 511.163 244.82 511.835 241.731C512.506 238.643 512.416 235.438 511.573 232.392C510.73 229.346 509.158 226.551 506.994 224.248C504.83 221.944 502.139 220.202 499.151 219.17C499.065 219.14 498.978 219.11 498.891 219.08C494.886 217.742 490.98 216.125 487.201 214.24C486.911 214.09 486.621 213.94 486.351 213.79C483.811 212.39 481.971 210.99 481.161 209.65C482.372 205.935 484.303 202.495 486.844 199.527C489.384 196.558 492.485 194.12 495.968 192.35C499.451 190.58 503.249 189.513 507.145 189.211C511.04 188.909 514.957 189.378 518.671 190.59L524.571 192.51C532.013 194.928 538.195 200.191 541.771 207.15C545.931 210.13 549.211 214.51 551.781 219.68C564.701 245.62 539.761 274.26 512.221 265.42Z" fill="#A47551"/>
<path d="M531.691 422.3C531.691 424.059 531.158 425.776 530.162 427.226C529.165 428.676 527.753 429.789 526.111 430.42C525.332 430.719 524.514 430.901 523.681 430.96C523.461 430.98 523.231 430.99 523.011 430.99H506.221V512.45C505.971 512.78 505.711 513.11 505.451 513.44C504.011 515.28 502.551 517.12 501.071 518.93C500.751 519.33 500.431 519.72 500.121 520.11C499.631 520.7 499.151 521.29 498.671 521.87C498.501 522.07 498.341 522.26 498.181 522.46C497.361 523.44 496.541 524.42 495.701 525.4V525.41C495.691 525.42 495.691 525.42 495.691 525.43L495.271 525.91C494.601 526.7 493.931 527.5 493.241 528.29C492.304 527.769 491.476 527.073 490.801 526.24C490.383 525.738 490.027 525.188 489.741 524.6C489.731 524.59 489.731 524.58 489.721 524.56C489.71 524.537 489.7 524.514 489.691 524.49C489.13 523.32 488.843 522.038 488.851 520.74V430.99H451.211C450.1 430.997 448.999 430.783 447.971 430.36C446.675 429.843 445.524 429.02 444.615 427.961C443.706 426.902 443.067 425.639 442.751 424.28V424.27C442.283 422.295 442.531 420.219 443.451 418.41C443.441 418.4 443.441 418.4 443.451 418.4C443.84 417.61 444.357 416.89 444.981 416.27V416.26C444.981 416.25 444.981 416.25 444.991 416.24C445.802 415.411 446.769 414.753 447.837 414.303C448.905 413.853 450.052 413.621 451.211 413.62H523.011C525.313 413.621 527.52 414.536 529.148 416.164C530.775 417.791 531.69 419.998 531.691 422.3Z" fill="#494B49"/>
<path d="M579.502 254.172C575.989 253.515 572.381 253.556 568.884 254.294C565.387 255.031 562.07 256.45 559.121 258.469C556.172 260.489 553.65 263.069 551.699 266.064C549.748 269.058 548.405 272.407 547.748 275.92C546.589 282.126 547.623 288.541 550.673 294.069C553.722 299.597 558.599 303.892 564.467 306.22L556.285 349.972L573.36 353.166L591.455 256.407L579.502 254.172Z" fill="#494B49"/>
<path d="M554.921 222C562.653 222 568.921 215.732 568.921 208C568.921 200.268 562.653 194 554.921 194C547.189 194 540.921 200.268 540.921 208C540.921 215.732 547.189 222 554.921 222Z" fill="#A47551"/>
<path d="M718.123 248.198C712.048 250.225 705.553 250.57 699.151 250.681C680.521 251.003 661.419 249.37 644.463 241.645C627.507 233.92 612.909 219.239 609.14 200.991C607.515 193.126 607.706 184.366 602.75 178.047C596.868 170.547 585.047 169.525 576.813 174.326C568.579 179.126 563.771 188.467 562.373 197.896L559.056 203.288C559.133 206.76 562.89 209.069 566.348 209.394C569.805 209.72 573.281 208.767 576.744 209.025C584.334 209.589 590.521 216.081 592.733 223.362C594.945 230.644 593.88 238.52 591.987 245.891C590.094 253.262 587.389 260.453 586.309 267.986C585.228 275.52 585.961 283.695 590.394 289.881C593.72 294.525 598.79 297.603 603.944 300.065C616.421 306.026 630.089 309.079 643.917 308.994C657.746 308.909 671.375 305.688 683.778 299.573C696.181 293.459 707.036 284.61 715.525 273.694C724.014 262.777 729.915 250.077 732.786 236.549C729.884 242.258 724.198 246.172 718.123 248.198Z" fill="#A47551"/>
<path d="M449.333 544.242H420.819C419.25 544.24 417.735 543.673 416.551 542.645C415.367 541.616 414.594 540.195 414.374 538.642C412.613 525.686 412.613 512.551 414.374 499.595C414.591 498.06 415.349 496.654 416.51 495.628C417.671 494.602 419.16 494.023 420.709 493.996C429.681 489.974 439.342 489.975 449.431 493.995C450.371 494.008 451.296 494.226 452.143 494.634C452.989 495.042 453.736 495.631 454.331 496.358C454.951 497.115 455.395 498.001 455.63 498.95C455.865 499.9 455.886 500.89 455.69 501.849C453.4 513.248 453.4 524.989 455.69 536.388C455.886 537.346 455.865 538.337 455.63 539.286C455.395 540.236 454.951 541.122 454.331 541.878C453.726 542.619 452.963 543.215 452.099 543.624C451.234 544.033 450.289 544.244 449.333 544.242Z" fill="#0EA5E9"/>
<path d="M446.347 508.883H422.347C421.949 508.883 421.567 508.725 421.286 508.443C421.005 508.162 420.847 507.781 420.847 507.383C420.847 506.985 421.005 506.603 421.286 506.322C421.567 506.041 421.949 505.883 422.347 505.883H446.347C446.745 505.883 447.126 506.041 447.407 506.322C447.689 506.603 447.847 506.985 447.847 507.383C447.847 507.781 447.689 508.162 447.407 508.443C447.126 508.725 446.745 508.883 446.347 508.883Z" fill="white"/>
<path d="M446.347 520.883H422.347C421.949 520.883 421.567 520.725 421.286 520.443C421.005 520.162 420.847 519.781 420.847 519.383C420.847 518.985 421.005 518.603 421.286 518.322C421.567 518.041 421.949 517.883 422.347 517.883H446.347C446.745 517.883 447.126 518.041 447.407 518.322C447.689 518.603 447.847 518.985 447.847 519.383C447.847 519.781 447.689 520.162 447.407 520.443C447.126 520.725 446.745 520.883 446.347 520.883Z" fill="white"/>
<path d="M446.347 532.883H422.347C421.949 532.883 421.567 532.725 421.286 532.443C421.005 532.162 420.847 531.781 420.847 531.383C420.847 530.985 421.005 530.603 421.286 530.322C421.567 530.041 421.949 529.883 422.347 529.883H446.347C446.745 529.883 447.126 530.041 447.407 530.322C447.689 530.603 447.847 530.985 447.847 531.383C447.847 531.781 447.689 532.162 447.407 532.443C447.126 532.725 446.745 532.883 446.347 532.883Z" fill="white"/>
<path d="M108.597 226.4V226.397C108.627 226.153 108.751 225.932 108.943 225.779C109.134 225.626 109.378 225.553 109.622 225.577L263.903 225.988C264.147 225.966 264.389 226.039 264.579 226.193C264.77 226.346 264.892 226.568 264.921 226.811V226.813C264.891 227.057 264.767 227.278 264.575 227.432C264.384 227.585 264.14 227.657 263.896 227.633L109.615 227.222C109.372 227.244 109.129 227.171 108.939 227.018C108.749 226.864 108.626 226.642 108.597 226.4Z" fill="#3F3D56"/>
<path d="M149.395 321.42L142.844 328.625C142.541 328.881 142.17 329.044 141.776 329.095C141.383 329.146 140.983 329.083 140.624 328.913C139.538 328.528 138.571 327.866 137.82 326.991C133.139 321.678 127.883 316.899 122.149 312.743C121.207 312.079 120.455 311.179 119.969 310.134C119.772 309.798 119.672 309.413 119.681 309.024C119.69 308.634 119.807 308.254 120.019 307.927C120.084 303.985 122.304 301.543 126.62 300.666C127.376 299.879 129.086 300.178 130.618 301.373C136.919 306.29 142.842 311.675 148.335 317.481C149.684 318.908 150.14 320.601 149.395 321.42Z" fill="#0EA5E9"/>
<path d="M132.558 305.91L127.044 311.975C126.854 312.184 126.395 312.077 126.019 311.735C125.643 311.393 125.493 310.947 125.683 310.737L131.197 304.673C131.387 304.464 131.846 304.571 132.222 304.913C132.598 305.254 132.749 305.701 132.558 305.91Z" fill="white"/>
<path d="M138.003 310.861L132.489 316.925C132.299 317.135 131.84 317.027 131.464 316.686C131.088 316.344 130.938 315.897 131.128 315.688L136.642 309.623C136.832 309.414 137.291 309.521 137.667 309.863C138.043 310.205 138.193 310.652 138.003 310.861Z" fill="white"/>
<path d="M143.448 315.811L137.934 321.876C137.744 322.085 137.285 321.978 136.909 321.636C136.533 321.294 136.383 320.848 136.573 320.638L142.087 314.574C142.277 314.364 142.736 314.472 143.112 314.814C143.488 315.155 143.638 315.602 143.448 315.811Z" fill="white"/>
<path d="M734 643C734 643.131 733.974 643.262 733.924 643.383C733.873 643.505 733.799 643.615 733.705 643.708C733.611 643.801 733.5 643.875 733.377 643.925C733.254 643.975 733.123 644 732.99 644H1.01017C0.742255 644 0.485312 643.895 0.295869 643.707C0.106426 643.52 0 643.265 0 643C0 642.735 0.106426 642.48 0.295869 642.293C0.485312 642.105 0.742255 642 1.01017 642H732.99C733.123 642 733.254 642.025 733.377 642.075C733.5 642.125 733.611 642.199 733.705 642.292C733.799 642.385 733.873 642.495 733.924 642.617C733.974 642.738 734 642.869 734 643Z" fill="#CCCCCC"/>
<path d="M457.688 507.791C459.068 506.976 460.252 505.868 461.157 504.546C462.063 503.224 462.667 501.719 462.928 500.138C463.189 498.557 463.1 496.937 462.668 495.394C462.235 493.851 461.47 492.422 460.425 491.206L480.007 457.53L459.795 458.669L444.299 490.474C442.374 492.365 441.209 494.896 441.025 497.588C440.841 500.279 441.651 502.945 443.301 505.08C444.952 507.214 447.328 508.669 449.98 509.169C452.631 509.669 455.374 509.179 457.688 507.791Z" fill="#F7E7CE"/>
<path d="M465.59 483.032L447.495 468.939L480.375 405.22L468.055 324.076C467.446 320.066 467.727 315.97 468.879 312.08C470.031 308.19 472.026 304.602 474.72 301.569C477.415 298.537 480.745 296.135 484.472 294.534C488.2 292.933 492.234 292.172 496.289 292.305C503.612 292.555 510.537 295.699 515.545 301.048C520.553 306.397 523.234 313.514 523.001 320.838L519.957 413.231L465.59 483.032Z" fill="#E6E6E6"/>
<path d="M308.667 282.257H247.566C245.929 282.255 244.359 281.604 243.201 280.446C242.043 279.288 241.392 277.718 241.39 276.08V195.176C241.392 193.539 242.043 191.969 243.201 190.811C244.359 189.653 245.929 189.002 247.566 189H308.667C310.304 189.002 311.874 189.653 313.032 190.811C314.19 191.969 314.841 193.539 314.843 195.176V276.08C314.841 277.718 314.19 279.288 313.032 280.446C311.874 281.604 310.304 282.255 308.667 282.257Z" fill="#E6E6E6"/>
<path d="M304.372 277.109H251.861C250.407 277.107 249.013 276.529 247.985 275.501C246.957 274.473 246.379 273.079 246.377 271.625V199.632C246.379 198.178 246.957 196.784 247.985 195.756C249.013 194.728 250.407 194.149 251.861 194.148H304.372C305.826 194.149 307.219 194.728 308.248 195.756C309.276 196.784 309.854 198.178 309.856 199.632V271.625C309.854 273.079 309.276 274.473 308.248 275.501C307.219 276.529 305.826 277.107 304.372 277.109Z" fill="white"/>
<path d="M299.133 207.829H257.099C256.919 207.83 256.74 207.795 256.573 207.726C256.407 207.657 256.255 207.556 256.127 207.429C256 207.302 255.898 207.15 255.829 206.984C255.76 206.817 255.725 206.639 255.725 206.458C255.725 206.278 255.76 206.1 255.829 205.933C255.898 205.766 256 205.615 256.127 205.488C256.255 205.36 256.407 205.26 256.573 205.191C256.74 205.122 256.919 205.087 257.099 205.088H299.133C299.314 205.087 299.492 205.122 299.659 205.191C299.826 205.26 299.977 205.36 300.105 205.488C300.233 205.615 300.334 205.766 300.403 205.933C300.472 206.1 300.508 206.278 300.508 206.458C300.508 206.639 300.472 206.817 300.403 206.984C300.334 207.15 300.233 207.302 300.105 207.429C299.977 207.556 299.826 207.657 299.659 207.726C299.492 207.795 299.314 207.83 299.133 207.829Z" fill="#0EA5E9"/>
<path d="M299.133 213.246H257.099C256.736 213.246 256.387 213.102 256.13 212.845C255.873 212.588 255.728 212.239 255.728 211.875C255.728 211.512 255.873 211.163 256.13 210.906C256.387 210.649 256.736 210.504 257.099 210.504H299.133C299.313 210.504 299.492 210.54 299.658 210.609C299.824 210.678 299.975 210.779 300.103 210.906C300.23 211.033 300.331 211.184 300.4 211.351C300.469 211.517 300.504 211.695 300.504 211.875C300.504 212.055 300.469 212.234 300.4 212.4C300.331 212.566 300.23 212.717 300.103 212.845C299.975 212.972 299.824 213.073 299.658 213.142C299.492 213.211 299.313 213.246 299.133 213.246Z" fill="#0EA5E9"/>
<path d="M275.32 218.663H257.099C256.736 218.663 256.387 218.519 256.13 218.262C255.873 218.005 255.728 217.656 255.728 217.292C255.728 216.929 255.873 216.58 256.13 216.323C256.387 216.066 256.736 215.921 257.099 215.921H275.32C275.684 215.921 276.032 216.066 276.289 216.323C276.547 216.58 276.691 216.929 276.691 217.292C276.691 217.656 276.547 218.005 276.289 218.262C276.032 218.519 275.684 218.663 275.32 218.663Z" fill="#0EA5E9"/>
<path d="M299.133 230.008H257.099C256.919 230.009 256.74 229.974 256.573 229.905C256.407 229.837 256.255 229.736 256.127 229.608C256 229.481 255.898 229.33 255.829 229.163C255.76 228.997 255.725 228.818 255.725 228.638C255.725 228.457 255.76 228.279 255.829 228.112C255.898 227.946 256 227.794 256.127 227.667C256.255 227.54 256.407 227.439 256.573 227.37C256.74 227.301 256.919 227.266 257.099 227.267H299.133C299.314 227.266 299.492 227.301 299.659 227.37C299.826 227.439 299.977 227.54 300.105 227.667C300.233 227.794 300.334 227.946 300.403 228.112C300.472 228.279 300.508 228.457 300.508 228.638C300.508 228.818 300.472 228.997 300.403 229.163C300.334 229.33 300.233 229.481 300.105 229.608C299.977 229.736 299.826 229.837 299.659 229.905C299.492 229.974 299.314 230.009 299.133 230.008Z" fill="#E4E4E4"/>
<path d="M299.133 235.425H257.099C256.919 235.426 256.74 235.391 256.573 235.322C256.407 235.254 256.255 235.153 256.127 235.025C256 234.898 255.898 234.747 255.829 234.58C255.76 234.413 255.725 234.235 255.725 234.055C255.725 233.874 255.76 233.696 255.829 233.529C255.898 233.362 256 233.211 256.127 233.084C256.255 232.956 256.407 232.856 256.573 232.787C256.74 232.718 256.919 232.683 257.099 232.684H299.133C299.314 232.683 299.492 232.718 299.659 232.787C299.826 232.856 299.977 232.956 300.105 233.084C300.233 233.211 300.334 233.362 300.403 233.529C300.472 233.696 300.508 233.874 300.508 234.055C300.508 234.235 300.472 234.413 300.403 234.58C300.334 234.747 300.233 234.898 300.105 235.025C299.977 235.153 299.826 235.254 299.659 235.322C299.492 235.391 299.314 235.426 299.133 235.425Z" fill="#E4E4E4"/>
<path d="M275.32 240.842H257.099C256.736 240.842 256.387 240.698 256.13 240.441C255.873 240.184 255.728 239.835 255.728 239.472C255.728 239.108 255.873 238.759 256.13 238.502C256.387 238.245 256.736 238.101 257.099 238.101H275.32C275.684 238.101 276.032 238.245 276.289 238.502C276.547 238.759 276.691 239.108 276.691 239.472C276.691 239.835 276.547 240.184 276.289 240.441C276.032 240.698 275.684 240.842 275.32 240.842Z" fill="#E4E4E4"/>
<path d="M299.133 252.188H257.099C256.736 252.188 256.387 252.043 256.13 251.786C255.873 251.529 255.728 251.18 255.728 250.817C255.728 250.453 255.873 250.105 256.13 249.847C256.387 249.59 256.736 249.446 257.099 249.446H299.133C299.497 249.446 299.846 249.59 300.103 249.847C300.36 250.105 300.504 250.453 300.504 250.817C300.504 251.18 300.36 251.529 300.103 251.786C299.846 252.043 299.497 252.188 299.133 252.188Z" fill="#E4E4E4"/>
<path d="M299.133 257.605H257.099C256.736 257.605 256.387 257.46 256.13 257.203C255.873 256.946 255.728 256.597 255.728 256.234C255.728 255.87 255.873 255.521 256.13 255.264C256.387 255.007 256.736 254.863 257.099 254.863H299.133C299.497 254.863 299.846 255.007 300.103 255.264C300.36 255.521 300.504 255.87 300.504 256.234C300.504 256.597 300.36 256.946 300.103 257.203C299.846 257.46 299.497 257.605 299.133 257.605Z" fill="#E4E4E4"/>
<path d="M275.32 263.022H257.099C256.736 263.022 256.387 262.877 256.13 262.62C255.873 262.363 255.728 262.014 255.728 261.651C255.728 261.287 255.873 260.938 256.13 260.681C256.387 260.424 256.736 260.28 257.099 260.28H275.32C275.684 260.28 276.032 260.424 276.289 260.681C276.547 260.938 276.691 261.287 276.691 261.651C276.691 262.014 276.547 262.363 276.289 262.62C276.032 262.877 275.684 263.022 275.32 263.022Z" fill="#E4E4E4"/>
<path d="M100.746 174.459L264.661 34.256H264.921V36.314H265.421L102.085 176.023L100.746 174.459Z" fill="#2F2E41"/>
<path d="M213.917 335.471H138.549C137.371 335.472 136.242 335.941 135.409 336.773C134.577 337.606 134.109 338.735 134.107 339.912V386.836C134.109 388.013 134.577 389.142 135.409 389.975C136.242 390.808 137.371 391.276 138.549 391.277H213.917C215.094 391.276 216.223 390.808 217.056 389.975C217.888 389.142 218.357 388.013 218.358 386.836V339.912C218.357 338.735 217.888 337.606 217.056 336.773C216.223 335.941 215.094 335.472 213.917 335.471Z" fill="white"/>
<path d="M213.917 335.471H138.549C137.371 335.472 136.242 335.941 135.409 336.773C134.577 337.606 134.109 338.735 134.107 339.912V386.836C134.109 388.013 134.577 389.142 135.409 389.975C136.242 390.808 137.371 391.276 138.549 391.277H213.917C215.094 391.276 216.223 390.808 217.056 389.975C217.888 389.142 218.357 388.013 218.358 386.836V339.912C218.357 338.735 217.888 337.606 217.056 336.773C216.223 335.941 215.094 335.472 213.917 335.471ZM215.374 369.177C215.356 373.954 213.466 378.534 210.111 381.934C206.755 385.334 202.2 387.283 197.424 387.363C189.776 387.463 201.655 387.502 192.432 387.502C171.341 387.502 149.349 387.3 141.143 387.169C140.064 387.147 139.036 386.704 138.278 385.934C137.521 385.164 137.095 384.128 137.091 383.049V339.916C137.091 339.529 137.245 339.158 137.518 338.884C137.791 338.611 138.162 338.456 138.548 338.455H213.914C214.3 338.455 214.671 338.609 214.945 338.882C215.218 339.155 215.373 339.525 215.374 339.912V369.177Z" fill="#CACACA"/>
<path d="M203.974 365.419H146.552C146.044 365.419 145.548 365.261 145.133 364.968C144.718 364.676 144.403 364.262 144.232 363.783L135.363 338.902C135.231 338.531 135.19 338.133 135.243 337.743C135.296 337.352 135.442 336.98 135.669 336.657C135.896 336.335 136.197 336.072 136.547 335.89C136.897 335.708 137.285 335.613 137.68 335.612L214.693 335.476H214.696C215.104 335.476 215.505 335.577 215.864 335.77C216.222 335.963 216.528 336.243 216.752 336.583C216.976 336.923 217.113 337.314 217.149 337.72C217.185 338.126 217.12 338.534 216.96 338.909L206.238 363.927C206.048 364.37 205.733 364.748 205.33 365.013C204.928 365.278 204.456 365.42 203.974 365.419Z" fill="#CACACA"/>
<path d="M176.189 371.555C179.578 371.555 182.325 368.808 182.325 365.419C182.325 362.031 179.578 359.284 176.189 359.284C172.801 359.284 170.053 362.031 170.053 365.419C170.053 368.808 172.801 371.555 176.189 371.555Z" fill="#3F3D56"/>
<path d="M317.667 68.2567H256.566C254.929 68.2548 253.359 67.6035 252.201 66.4456C251.043 65.2877 250.392 63.7179 250.39 62.0804V6.17632C250.392 4.53883 251.043 2.96893 252.201 1.81105C253.359 0.653167 254.929 0.00185802 256.566 0H317.667C319.304 0.00185008 320.874 0.653167 322.032 1.81105C323.19 2.96893 323.841 4.53882 323.843 6.17632V62.0804C323.841 63.7179 323.19 65.2878 322.032 66.4456C320.874 67.6035 319.304 68.2548 317.667 68.2567Z" fill="#E6E6E6"/>
<path d="M313.372 63.1091H260.861C259.407 63.1074 258.013 62.5291 256.985 61.501C255.957 60.473 255.379 59.0791 255.377 57.6252V10.6315C255.379 9.17762 255.957 7.78372 256.985 6.75565C258.013 5.72757 259.407 5.14929 260.861 5.14764H313.372C314.826 5.14929 316.219 5.72757 317.248 6.75565C318.276 7.78372 318.854 9.17762 318.856 10.6315V57.6251C318.854 59.0791 318.276 60.473 317.248 61.501C316.219 62.5291 314.826 63.1074 313.372 63.1091Z" fill="white"/>
<path d="M308.133 18.8293H266.099C265.919 18.8298 265.74 18.7947 265.573 18.726C265.407 18.6573 265.255 18.5564 265.127 18.4291C265 18.3018 264.898 18.1505 264.829 17.9839C264.76 17.8173 264.725 17.6388 264.725 17.4584C264.725 17.2781 264.76 17.0995 264.829 16.933C264.898 16.7664 265 16.6151 265.127 16.4878C265.255 16.3604 265.407 16.2595 265.573 16.1908C265.74 16.1222 265.919 16.0871 266.099 16.0876H308.133C308.314 16.0871 308.492 16.1222 308.659 16.1908C308.826 16.2595 308.977 16.3604 309.105 16.4878C309.233 16.6151 309.334 16.7664 309.403 16.933C309.472 17.0995 309.508 17.2781 309.508 17.4584C309.508 17.6388 309.472 17.8173 309.403 17.9839C309.334 18.1505 309.233 18.3018 309.105 18.4291C308.977 18.5564 308.826 18.6573 308.659 18.726C308.492 18.7947 308.314 18.8298 308.133 18.8293Z" fill="#0EA5E9"/>
<path d="M308.133 24.2463H266.099C265.736 24.2463 265.387 24.1019 265.13 23.8448C264.873 23.5877 264.728 23.239 264.728 22.8754C264.728 22.5118 264.873 22.1631 265.13 21.906C265.387 21.6489 265.736 21.5044 266.099 21.5044H308.133C308.497 21.5044 308.846 21.6489 309.103 21.906C309.36 22.1631 309.504 22.5118 309.504 22.8754C309.504 23.239 309.36 23.5877 309.103 23.8448C308.846 24.1019 308.497 24.2463 308.133 24.2463Z" fill="#0EA5E9"/>
<path d="M284.32 29.6633H266.099C265.736 29.6633 265.387 29.5189 265.13 29.2618C264.873 29.0047 264.728 28.656 264.728 28.2924C264.728 27.9288 264.873 27.5801 265.13 27.323C265.387 27.0659 265.736 26.9214 266.099 26.9214H284.32C284.684 26.9214 285.032 27.0659 285.289 27.323C285.547 27.5801 285.691 27.9288 285.691 28.2924C285.691 28.656 285.547 29.0047 285.289 29.2618C285.032 29.5189 284.684 29.6633 284.32 29.6633Z" fill="#0EA5E9"/>
<path d="M308.133 41.0085H266.099C265.919 41.009 265.74 40.9739 265.573 40.9052C265.407 40.8365 265.255 40.7356 265.127 40.6083C265 40.481 264.898 40.3297 264.829 40.1631C264.76 39.9965 264.725 39.818 264.725 39.6376C264.725 39.4573 264.76 39.2787 264.829 39.1122C264.898 38.9456 265 38.7943 265.127 38.667C265.255 38.5396 265.407 38.4387 265.573 38.37C265.74 38.3014 265.919 38.2663 266.099 38.2668H308.133C308.314 38.2663 308.492 38.3014 308.659 38.37C308.826 38.4387 308.977 38.5396 309.105 38.667C309.233 38.7943 309.334 38.9456 309.403 39.1122C309.472 39.2787 309.508 39.4573 309.508 39.6376C309.508 39.818 309.472 39.9965 309.403 40.1631C309.334 40.3297 309.233 40.481 309.105 40.6083C308.977 40.7356 308.826 40.8365 308.659 40.9052C308.492 40.9739 308.314 41.009 308.133 41.0085Z" fill="#E4E4E4"/>
<path d="M308.133 46.4255H266.099C265.919 46.426 265.74 46.3909 265.573 46.3222C265.407 46.2535 265.255 46.1526 265.127 46.0253C265 45.8979 264.898 45.7466 264.829 45.5801C264.76 45.4135 264.725 45.2349 264.725 45.0546C264.725 44.8742 264.76 44.6956 264.829 44.5291C264.898 44.3625 265 44.2112 265.127 44.0839C265.255 43.9565 265.407 43.8556 265.573 43.7869C265.74 43.7182 265.919 43.6831 266.099 43.6836H308.133C308.314 43.6831 308.492 43.7182 308.659 43.7869C308.826 43.8556 308.977 43.9565 309.105 44.0839C309.233 44.2112 309.334 44.3625 309.403 44.5291C309.472 44.6956 309.508 44.8742 309.508 45.0546C309.508 45.2349 309.472 45.4135 309.403 45.5801C309.334 45.7466 309.233 45.8979 309.105 46.0253C308.977 46.1526 308.826 46.2535 308.659 46.3222C308.492 46.3909 308.314 46.426 308.133 46.4255Z" fill="#E4E4E4"/>
<path d="M284.32 51.8425H266.099C265.736 51.8425 265.387 51.6981 265.13 51.441C264.873 51.1839 264.728 50.8352 264.728 50.4716C264.728 50.108 264.873 49.7593 265.13 49.5022C265.387 49.2451 265.736 49.1006 266.099 49.1006H284.32C284.684 49.1006 285.032 49.2451 285.289 49.5022C285.547 49.7593 285.691 50.108 285.691 50.4716C285.691 50.8352 285.547 51.1839 285.289 51.441C285.032 51.6981 284.684 51.8425 284.32 51.8425Z" fill="#E4E4E4"/>
</svg>
